<svg fill="#000000" version="1.1" id="Capa_1" xmlns="http://www.w3.org/2000/svg" xmlns:xlink="http://www.w3.org/1999/xlink" width="206px" height="206px" viewBox="-22.26 -22.26 137.28 137.28" xml:space="preserve" stroke="#000000" stroke-width="0.834858"><g id="SVGRepo_bgCarrier" stroke-width="0" transform="translate(0,0), scale(1)"><path transform="translate(-22.26, -22.26), scale(8.58)" fill="#7ed0ec" d="M9.166.33a2.25 2.25 0 00-2.332 0l-5.25 3.182A2.25 2.25 0 00.5 5.436v5.128a2.25 2.25 0 001.084 1.924l5.25 3.182a2.25 2.25 0 002.332 0l5.25-3.182a2.25 2.25 0 001.084-1.924V5.436a2.25 2.25 0 00-1.084-1.924L9.166.33z" strokewidth="0"></path></g><g id="SVGRepo_tracerCarrier" stroke-linecap="round" stroke-linejoin="round" stroke="#CCCCCC" stroke-width="0.742096"> <g> <g> <path d="M25.669,16.669h-4.764v14.747h3.646c3.519,0,6.101-0.612,7.746-1.835c1.645-1.225,2.468-3.137,2.468-5.739 c0-2.409-0.737-4.207-2.21-5.394C31.082,17.264,28.787,16.669,25.669,16.669z"></path> <path d="M66.994,0L0,0.001v66.993v25.768h92.762V25.768C92.762,11.536,81.227,0,66.994,0z M37.52,33.684 c-2.87,2.334-6.954,3.5-12.252,3.5h-4.362v15.694H14.05V10.931h12.079c5.24,0,9.166,1.072,11.778,3.212 c2.61,2.143,3.916,5.3,3.916,9.471C41.822,27.993,40.389,31.351,37.52,33.684z M62.062,83.607 c-11.507,0-20.834-9.328-20.834-20.834c0-11.507,9.328-20.835,20.834-20.835v21.728l19.215,7.176 C78.123,78.341,70.709,83.607,62.062,83.607z M85.449,67.107l-19.213-7.175V38.204c11.506,0,20.834,9.327,20.834,20.834 C87.07,61.9,86.492,64.625,85.449,67.107z"></path> </g> </g> </g><g id="SVGRepo_iconCarrier"> <g> <g> <path d="M25.669,16.669h-4.764v14.747h3.646c3.519,0,6.101-0.612,7.746-1.835c1.645-1.225,2.468-3.137,2.468-5.739 c0-2.409-0.737-4.207-2.21-5.394C31.082,17.264,28.787,16.669,25.669,16.669z"></path> <path d="M66.994,0L0,0.001v66.993v25.768h92.762V25.768C92.762,11.536,81.227,0,66.994,0z M37.52,33.684 c-2.87,2.334-6.954,3.5-12.252,3.5h-4.362v15.694H14.05V10.931h12.079c5.24,0,9.166,1.072,11.778,3.212 c2.61,2.143,3.916,5.3,3.916,9.471C41.822,27.993,40.389,31.351,37.52,33.684z M62.062,83.607 c-11.507,0-20.834-9.328-20.834-20.834c0-11.507,9.328-20.835,20.834-20.835v21.728l19.215,7.176 C78.123,78.341,70.709,83.607,62.062,83.607z M85.449,67.107l-19.213-7.175V38.204c11.506,0,20.834,9.327,20.834,20.834 C87.07,61.9,86.492,64.625,85.449,67.107z"></path> </g> </g> </g></svg>